<svg id="svg" version="1.1" width="1000" height="531" xmlns="http://www.w3.org/2000/svg" xmlns:xlink="http://www.w3.org/1999/xlink" style="display: block;"><g id="svgg"><path id="path0" d="M0.026 30.100 C 0.050 57.139,0.112 59.981,0.632 58.045 C 2.641 50.575,9.357 44.418,16.800 43.223 C 18.356 42.974,27.551 42.805,39.700 42.803 L 60.000 42.800 60.002 29.900 C 60.004 22.805,60.181 15.920,60.397 14.600 C 61.476 8.005,66.574 2.420,73.200 0.573 C 74.679 0.161,68.303 0.065,37.500 0.036 L 0.000 0.000 0.026 30.100 M130.895 0.777 C 136.688 2.629,141.077 7.214,142.579 12.984 C 143.442 16.298,143.495 52.255,142.642 55.460 C 141.332 60.380,137.710 64.643,132.903 66.919 L 130.200 68.200 120.546 68.400 L 110.891 68.600 109.246 70.593 L 107.600 72.585 107.600 133.609 C 107.600 187.462,107.527 194.912,106.979 197.016 C 105.145 204.061,100.088 209.347,93.046 211.580 C 90.617 212.350,91.645 212.355,245.300 212.378 L 400.000 212.400 400.000 165.000 C 400.000 118.221,399.990 117.600,399.218 117.600 C 398.524 117.600,398.422 117.272,398.318 114.700 L 398.200 111.800 397.452 114.721 C 396.399 118.832,395.354 118.729,394.200 114.400 L 393.400 111.400 393.283 114.500 C 393.179 117.271,393.083 117.600,392.383 117.600 C 391.655 117.600,391.600 117.303,391.600 113.400 L 391.600 109.200 392.972 109.200 C 394.313 109.200,395.554 111.485,395.612 114.062 C 395.634 115.023,396.263 113.546,396.788 111.300 C 397.262 109.275,397.328 109.200,398.640 109.200 L 400.000 109.200 400.000 54.600 L 400.000 0.000 264.300 0.022 C 132.102 0.042,128.659 0.062,130.895 0.777 M75.597 7.568 C 72.556 8.511,69.850 10.864,68.364 13.857 L 67.400 15.800 67.400 34.200 L 67.400 52.600 68.524 54.890 C 71.099 60.132,73.725 61.200,84.039 61.200 L 91.536 61.200 91.813 63.780 C 92.189 67.294,91.233 71.373,88.985 75.850 C 88.004 77.803,87.202 79.448,87.201 79.507 C 87.200 79.565,88.055 79.177,89.100 78.643 C 94.265 76.003,100.722 70.366,105.759 64.100 L 108.090 61.200 117.745 61.196 C 128.926 61.192,130.014 60.924,133.094 57.426 C 136.045 54.073,136.046 54.066,135.916 33.550 L 135.800 15.400 134.618 13.267 C 133.328 10.937,131.977 9.634,129.447 8.281 C 127.732 7.364,78.365 6.710,75.597 7.568 M88.400 28.800 L 88.400 30.800 85.000 30.800 L 81.600 30.800 81.600 37.600 L 81.600 44.400 79.200 44.400 L 76.800 44.400 76.800 37.600 L 76.800 30.800 73.600 30.800 L 70.400 30.800 70.400 28.800 L 70.400 26.800 79.400 26.800 L 88.400 26.800 88.400 28.800 M109.171 27.385 C 110.525 28.085,110.800 28.700,110.800 31.033 L 110.800 32.800 108.400 32.800 C 106.107 32.800,106.000 32.756,106.000 31.800 L 106.000 30.800 100.800 30.800 L 95.600 30.800 95.600 35.400 L 95.600 40.000 100.800 40.000 L 106.000 40.000 106.000 39.000 C 106.000 38.044,106.107 38.000,108.400 38.000 L 110.800 38.000 110.800 40.130 C 110.800 43.779,110.064 44.164,102.753 44.342 C 90.555 44.640,90.800 44.821,90.800 35.462 C 90.800 26.275,90.108 26.877,100.720 26.832 C 106.410 26.807,108.292 26.930,109.171 27.385 M132.635 28.122 C 133.564 29.203,133.600 29.472,133.594 35.322 C 133.585 44.525,133.570 44.536,122.265 44.330 L 115.130 44.200 114.165 43.078 C 113.230 41.990,113.200 41.757,113.213 35.478 C 113.230 26.460,112.819 26.789,123.935 26.913 L 131.671 27.000 132.635 28.122 M118.000 35.400 L 118.000 40.000 123.200 40.000 L 128.400 40.000 128.400 35.400 L 128.400 30.800 123.200 30.800 L 118.000 30.800 118.000 35.400 M12.800 115.600 L 12.800 171.600 54.000 171.600 L 95.200 171.600 95.200 127.457 L 95.200 83.314 91.821 85.068 C 87.481 87.321,83.809 88.236,77.637 88.602 L 72.675 88.896 75.576 85.548 C 80.312 80.083,84.543 73.156,85.358 69.535 L 85.598 68.470 79.299 68.335 C 70.987 68.157,67.214 66.492,63.546 61.384 L 62.264 59.600 37.532 59.600 L 12.800 59.600 12.800 115.600 M53.600 106.982 L 53.600 112.364 52.100 112.607 C 45.277 113.716,42.157 117.761,42.476 125.081 C 42.747 131.292,44.160 133.196,50.591 136.022 L 53.600 137.345 53.600 143.472 C 53.600 149.409,53.574 149.600,52.769 149.600 C 51.273 149.600,49.702 147.544,49.148 144.859 L 48.640 142.400 45.120 142.400 L 41.600 142.400 41.600 137.062 C 41.600 129.736,41.394 129.624,27.892 129.608 L 21.185 129.600 21.426 128.500 C 24.710 113.530,37.921 102.035,52.300 101.636 L 53.600 101.600 53.600 106.982 M62.000 102.653 C 80.076 106.614,91.446 127.061,85.571 145.043 L 84.773 147.486 77.686 147.725 C 73.789 147.856,69.908 148.137,69.062 148.348 C 67.598 148.714,67.536 148.691,67.780 147.866 C 70.086 140.042,67.262 134.593,59.210 131.334 L 56.410 130.200 56.405 124.500 C 56.402 121.365,56.535 118.801,56.700 118.801 C 58.298 118.809,60.142 120.956,60.565 123.300 L 60.836 124.800 64.443 124.800 L 68.049 124.800 67.780 122.900 C 67.011 117.467,63.718 113.903,58.413 112.765 L 56.400 112.334 56.400 106.992 L 56.400 101.650 57.900 101.867 C 58.725 101.986,60.570 102.340,62.000 102.653 M390.800 110.000 C 390.800 110.622,390.533 110.800,389.600 110.800 L 388.400 110.800 388.400 114.200 C 388.400 117.560,388.388 117.600,387.400 117.600 C 386.412 117.600,386.400 117.560,386.400 114.200 L 386.400 110.800 385.200 110.800 C 384.267 110.800,384.000 110.622,384.000 110.000 C 384.000 109.263,384.267 109.200,387.400 109.200 C 390.533 109.200,390.800 109.263,390.800 110.000 M53.600 124.010 L 53.600 129.221 52.500 128.648 C 47.976 126.295,48.551 119.227,53.300 118.825 C 53.465 118.811,53.600 121.145,53.600 124.010 M147.600 122.000 L 147.600 124.400 143.600 124.400 L 139.600 124.400 139.600 132.400 L 139.600 140.400 136.600 140.400 L 133.600 140.400 133.600 132.400 L 133.600 124.400 129.800 124.400 L 126.000 124.400 126.000 122.000 L 126.000 119.600 136.800 119.600 L 147.600 119.600 147.600 122.000 M172.808 120.204 C 174.381 121.018,174.800 121.936,174.800 124.574 L 174.800 126.800 171.800 126.800 L 168.800 126.800 168.800 125.600 L 168.800 124.400 162.600 124.400 L 156.400 124.400 156.400 130.000 L 156.400 135.600 162.600 135.600 L 168.800 135.600 168.800 134.400 L 168.800 133.200 171.800 133.200 L 174.800 133.200 174.800 135.578 C 174.800 137.514,174.621 138.164,173.835 139.078 L 172.871 140.200 163.369 140.321 C 149.840 140.493,150.400 140.937,150.400 130.039 C 150.400 122.087,150.639 121.009,152.590 120.158 C 154.453 119.347,171.223 119.385,172.808 120.204 M200.008 120.204 C 201.877 121.171,202.000 121.794,202.000 130.304 L 202.000 138.261 200.969 139.230 C 199.946 140.192,199.860 140.201,190.502 140.321 C 177.126 140.493,177.600 140.869,177.600 130.073 C 177.600 119.278,177.194 119.622,189.920 119.609 C 197.107 119.602,199.067 119.717,200.008 120.204 M238.000 122.000 L 238.000 124.400 234.000 124.400 L 230.000 124.400 230.000 132.400 L 230.000 140.400 227.000 140.400 L 224.000 140.400 224.000 132.400 L 224.000 124.400 220.200 124.400 L 216.400 124.400 216.400 122.000 L 216.400 119.600 227.200 119.600 L 238.000 119.600 238.000 122.000 M263.208 120.204 C 265.071 121.168,265.200 121.806,265.200 130.085 C 265.200 141.036,265.883 140.495,252.277 140.321 C 240.034 140.164,241.045 140.983,240.874 131.093 C 240.664 118.974,240.003 119.604,252.920 119.601 C 260.274 119.600,262.266 119.717,263.208 120.204 M290.408 120.204 C 292.269 121.167,292.400 121.810,292.400 130.000 C 292.400 140.936,293.028 140.400,280.200 140.400 C 267.415 140.400,267.993 140.899,268.014 129.874 C 268.029 122.105,268.225 121.166,270.044 120.158 C 271.521 119.340,288.812 119.379,290.408 120.204 M301.200 127.600 L 301.200 135.600 309.200 135.600 L 317.200 135.600 317.200 138.000 L 317.200 140.400 306.200 140.400 L 295.200 140.400 295.200 130.000 L 295.200 119.600 298.200 119.600 L 301.200 119.600 301.200 127.600 M326.000 123.600 L 326.000 127.600 329.145 127.600 L 332.290 127.600 336.220 123.600 L 340.150 119.600 344.108 119.600 L 348.066 119.600 343.233 124.697 C 340.575 127.500,338.400 129.901,338.400 130.032 C 338.400 130.163,340.470 132.442,343.000 135.098 C 348.509 140.879,348.428 140.400,343.892 140.400 L 340.185 140.400 336.200 136.400 L 332.215 132.400 329.108 132.400 L 326.000 132.400 326.000 136.400 L 326.000 140.400 323.000 140.400 L 320.000 140.400 320.000 130.000 L 320.000 119.600 323.000 119.600 L 326.000 119.600 326.000 123.600 M356.000 130.000 L 356.000 140.400 353.000 140.400 L 350.000 140.400 350.000 130.000 L 350.000 119.600 353.000 119.600 L 356.000 119.600 356.000 130.000 M380.400 122.000 L 380.400 124.400 376.400 124.400 L 372.400 124.400 372.400 132.400 L 372.400 140.400 369.400 140.400 L 366.400 140.400 366.400 132.400 L 366.400 124.400 362.600 124.400 L 358.800 124.400 358.800 122.000 L 358.800 119.600 369.600 119.600 L 380.400 119.600 380.400 122.000 M183.600 130.000 L 183.600 135.600 189.800 135.600 L 196.000 135.600 196.000 130.000 L 196.000 124.400 189.800 124.400 L 183.600 124.400 183.600 130.000 M246.800 130.000 L 246.800 135.600 253.000 135.600 L 259.200 135.600 259.200 130.000 L 259.200 124.400 253.000 124.400 L 246.800 124.400 246.800 130.000 M274.000 130.000 L 274.000 135.600 280.200 135.600 L 286.400 135.600 286.400 130.000 L 286.400 124.400 280.200 124.400 L 274.000 124.400 274.000 130.000 M39.100 131.766 C 40.234 132.129,40.514 137.200,39.400 137.200 C 39.070 137.200,38.800 137.380,38.800 137.600 C 38.800 137.820,39.070 138.000,39.400 138.000 C 40.333 138.000,40.246 142.725,39.300 143.443 C 38.633 143.949,38.633 143.975,39.300 143.987 C 39.889 143.998,40.000 144.388,40.000 146.456 C 40.000 148.326,39.833 149.039,39.300 149.443 C 38.633 149.949,38.633 149.975,39.300 149.987 C 40.483 150.009,40.323 155.190,39.129 155.503 L 38.259 155.730 39.149 156.059 C 40.569 156.585,40.269 161.324,38.800 161.561 L 37.800 161.722 38.800 161.978 C 39.723 162.214,39.809 162.436,39.917 164.873 L 40.035 167.512 36.543 168.008 C 33.063 168.502,18.211 168.330,15.300 167.763 C 13.315 167.376,13.354 162.053,15.343 161.960 C 16.107 161.925,16.092 161.890,15.200 161.642 C 14.266 161.382,14.200 161.194,14.200 158.800 C 14.200 156.400,14.264 156.220,15.200 155.979 L 16.200 155.722 15.200 155.561 C 13.713 155.322,13.433 150.584,14.874 150.051 L 15.787 149.713 14.893 149.430 C 14.100 149.178,14.000 148.878,14.000 146.760 C 14.000 144.656,14.106 144.335,14.893 144.044 L 15.787 143.713 14.893 143.430 C 13.772 143.074,13.521 138.559,14.600 138.145 C 14.930 138.018,15.200 137.754,15.200 137.557 C 15.200 137.361,14.930 137.200,14.600 137.200 C 13.533 137.200,13.769 132.552,14.866 131.965 C 16.629 131.021,36.264 130.861,39.100 131.766 M58.672 139.553 C 62.349 142.217,61.714 148.106,57.596 149.541 L 56.400 149.958 56.400 144.179 C 56.400 137.852,56.380 137.893,58.672 139.553 M43.307 150.630 C 44.740 153.379,47.867 155.317,52.300 156.204 L 53.600 156.464 53.600 162.287 L 53.600 168.110 50.566 167.835 C 48.897 167.684,46.242 167.157,44.666 166.663 L 41.800 165.766 41.723 155.983 C 41.657 147.560,41.717 146.422,42.156 147.800 C 42.436 148.680,42.954 149.954,43.307 150.630 M94.100 149.771 C 94.655 150.020,94.800 150.587,94.800 152.499 C 94.800 154.328,94.631 155.040,94.100 155.443 C 93.433 155.949,93.433 155.975,94.100 155.987 C 94.689 155.998,94.800 156.388,94.800 158.456 C 94.800 160.326,94.633 161.039,94.100 161.443 C 93.435 161.948,93.436 161.975,94.118 161.987 C 94.749 161.998,94.822 162.328,94.718 164.683 L 94.600 167.367 93.000 167.762 C 90.987 168.260,73.220 168.252,70.800 167.752 L 69.000 167.381 68.881 164.885 C 68.772 162.598,68.838 162.360,69.674 162.051 L 70.587 161.713 69.693 161.430 C 68.497 161.050,68.341 156.698,69.500 156.047 C 70.167 155.673,70.167 155.641,69.500 155.384 C 68.639 155.052,68.471 150.651,69.300 150.138 C 70.710 149.264,92.263 148.946,94.100 149.771 M67.200 157.537 L 67.200 165.474 63.700 166.511 C 61.775 167.081,59.345 167.661,58.300 167.798 L 56.400 168.049 56.400 162.258 L 56.400 156.466 58.413 156.035 C 61.998 155.266,65.918 152.549,66.616 150.350 C 67.114 148.779,67.200 149.832,67.200 157.537 M51.333 180.362 C 39.603 183.359,41.706 200.763,53.800 200.787 C 62.933 200.806,67.608 189.669,61.169 183.231 C 58.754 180.815,54.460 179.563,51.333 180.362 M0.034 203.700 L 0.000 212.400 8.500 212.382 L 17.000 212.364 14.162 211.445 C 7.445 209.268,2.177 203.696,0.569 197.066 C 0.117 195.203,0.065 195.855,0.034 203.700 " stroke="none" fill="#ffffff" fill-rule="evenodd"></path><path id="path1" d="M107.100 38.289 C 107.815 38.378,108.985 38.378,109.700 38.289 C 110.415 38.201,109.830 38.128,108.400 38.128 C 106.970 38.128,106.385 38.201,107.100 38.289 M77.900 44.289 C 78.615 44.378,79.785 44.378,80.500 44.289 C 81.215 44.201,80.630 44.128,79.200 44.128 C 77.770 44.128,77.185 44.201,77.900 44.289 M97.500 44.298 C 99.315 44.372,102.285 44.372,104.100 44.298 C 105.915 44.223,104.430 44.163,100.800 44.163 C 97.170 44.163,95.685 44.223,97.500 44.298 M120.120 44.298 C 122.055 44.372,125.115 44.371,126.920 44.297 C 128.724 44.223,127.140 44.163,123.400 44.164 C 119.660 44.164,118.184 44.225,120.120 44.298 M25.100 59.500 C 31.975 59.561,43.225 59.561,50.100 59.500 C 56.975 59.438,51.350 59.388,37.600 59.388 C 23.850 59.388,18.225 59.438,25.100 59.500 M81.300 61.498 C 83.225 61.571,86.375 61.571,88.300 61.498 C 90.225 61.425,88.650 61.365,84.800 61.365 C 80.950 61.365,79.375 61.425,81.300 61.498 M112.078 61.498 C 114.431 61.569,118.391 61.569,120.878 61.499 C 123.365 61.429,121.440 61.371,116.600 61.370 C 111.760 61.370,109.725 61.428,112.078 61.498 M75.700 88.676 C 76.085 88.776,76.715 88.776,77.100 88.676 C 77.485 88.575,77.170 88.493,76.400 88.493 C 75.630 88.493,75.315 88.575,75.700 88.676 M48.200 102.201 C 34.675 104.757,24.427 114.823,21.426 128.500 L 21.185 129.600 27.892 129.608 C 41.394 129.624,41.600 129.736,41.600 137.062 L 41.600 142.400 45.120 142.400 L 48.640 142.400 49.148 144.859 C 49.702 147.544,51.273 149.600,52.769 149.600 C 53.574 149.600,53.600 149.409,53.600 143.472 L 53.600 137.345 50.591 136.022 C 44.160 133.196,42.747 131.292,42.476 125.081 C 42.157 117.761,45.277 113.716,52.100 112.607 L 53.600 112.364 53.600 106.982 L 53.600 101.600 52.300 101.636 C 51.585 101.656,49.740 101.910,48.200 102.201 M56.400 106.992 L 56.400 112.334 58.413 112.765 C 63.718 113.903,67.011 117.467,67.780 122.900 L 68.049 124.800 64.443 124.800 L 60.836 124.800 60.565 123.300 C 60.142 120.956,58.298 118.809,56.700 118.801 C 56.535 118.801,56.402 121.365,56.405 124.500 L 56.410 130.200 59.210 131.334 C 67.262 134.593,70.086 140.042,67.780 147.866 C 67.536 148.691,67.598 148.714,69.062 148.348 C 69.908 148.137,73.789 147.856,77.686 147.725 L 84.773 147.486 85.571 145.043 C 92.015 125.321,78.930 104.905,57.900 101.867 L 56.400 101.650 56.400 106.992 M52.200 119.182 C 48.232 120.823,48.412 126.522,52.500 128.648 L 53.600 129.221 53.600 124.010 C 53.600 121.145,53.465 118.811,53.300 118.825 C 53.135 118.839,52.640 119.000,52.200 119.182 M325.748 123.600 C 325.748 125.910,325.814 126.855,325.895 125.700 C 325.976 124.545,325.976 122.655,325.895 121.500 C 325.814 120.345,325.748 121.290,325.748 123.600 M150.567 130.000 C 150.567 134.290,150.626 136.045,150.698 133.900 C 150.770 131.755,150.770 128.245,150.698 126.100 C 150.626 123.955,150.567 125.710,150.567 130.000 M177.766 130.000 C 177.766 134.070,177.825 135.735,177.898 133.700 C 177.971 131.665,177.971 128.335,177.898 126.300 C 177.825 124.265,177.766 125.930,177.766 130.000 M168.893 125.600 C 168.893 126.370,168.975 126.685,169.076 126.300 C 169.176 125.915,169.176 125.285,169.076 124.900 C 168.975 124.515,168.893 124.830,168.893 125.600 M196.159 130.000 C 196.159 133.190,196.221 134.495,196.297 132.900 C 196.373 131.305,196.373 128.695,196.297 127.100 C 196.221 125.505,196.159 126.810,196.159 130.000 M325.748 136.400 C 325.748 138.710,325.814 139.655,325.895 138.500 C 325.976 137.345,325.976 135.455,325.895 134.300 C 325.814 133.145,325.748 134.090,325.748 136.400 M16.600 133.200 C 16.736 133.420,16.484 133.600,16.040 133.600 C 15.321 133.600,15.239 133.839,15.296 135.795 C 15.330 137.003,15.495 137.770,15.661 137.501 C 15.899 137.115,16.239 137.115,17.251 137.497 C 18.048 137.798,18.708 137.842,18.983 137.614 C 19.243 137.398,19.664 137.392,20.000 137.600 C 20.349 137.815,20.774 137.787,21.087 137.528 C 21.432 137.241,21.763 137.233,22.100 137.504 C 22.375 137.724,23.138 137.844,23.796 137.770 C 24.713 137.666,24.853 137.730,24.396 138.046 C 23.981 138.334,25.195 138.378,28.400 138.192 C 30.930 138.045,33.810 137.897,34.800 137.862 C 36.327 137.809,39.497 136.400,38.089 136.400 C 37.820 136.400,37.600 136.209,37.600 135.976 C 37.600 135.743,37.764 135.654,37.964 135.778 C 38.762 136.271,39.600 135.490,39.594 134.257 C 39.590 133.426,39.474 133.179,39.253 133.528 C 38.899 134.087,35.270 134.011,33.895 133.416 C 33.507 133.248,32.962 133.300,32.683 133.531 C 32.134 133.987,24.400 133.986,24.400 133.531 C 24.400 133.383,23.395 133.285,22.166 133.314 C 20.846 133.345,20.233 133.479,20.666 133.643 C 21.093 133.804,20.520 133.921,19.300 133.922 C 17.763 133.923,17.200 133.773,17.200 133.362 C 17.200 133.053,17.009 132.800,16.776 132.800 C 16.543 132.800,16.464 132.980,16.600 133.200 M168.893 134.400 C 168.893 135.170,168.975 135.485,169.076 135.100 C 169.176 134.715,169.176 134.085,169.076 133.700 C 168.975 133.315,168.893 133.630,168.893 134.400 M316.928 138.000 C 316.928 139.430,317.001 140.015,317.089 139.300 C 317.178 138.585,317.178 137.415,317.089 136.700 C 317.001 135.985,316.928 136.570,316.928 138.000 M14.314 138.693 C 14.236 138.862,14.275 139.810,14.401 140.800 L 14.631 142.600 14.821 140.665 C 14.989 138.953,14.705 137.847,14.314 138.693 M56.400 144.179 L 56.400 149.958 57.596 149.541 C 61.714 148.106,62.349 142.217,58.672 139.553 C 56.380 137.893,56.400 137.852,56.400 144.179 M15.467 139.067 C 15.320 139.213,15.200 140.023,15.200 140.867 L 15.200 142.400 17.000 142.400 C 18.272 142.400,18.800 142.563,18.800 142.957 C 18.800 143.264,19.070 143.618,19.400 143.745 C 19.945 143.954,20.189 143.542,20.037 142.670 C 20.006 142.489,20.165 142.455,20.390 142.594 C 20.616 142.733,20.800 143.084,20.800 143.374 C 20.800 143.683,21.253 143.897,21.900 143.892 C 22.505 143.888,22.775 143.805,22.500 143.709 C 22.225 143.612,22.000 143.265,22.000 142.938 C 22.000 142.413,22.071 142.414,22.600 142.943 C 22.930 143.273,23.200 143.713,23.200 143.922 C 23.200 144.136,25.112 144.309,27.600 144.320 C 30.020 144.331,32.000 144.200,32.000 144.029 C 32.000 143.858,31.145 143.757,30.100 143.806 C 28.759 143.868,28.612 143.835,29.600 143.692 C 30.928 143.500,30.949 143.474,30.000 143.184 L 29.000 142.880 30.046 142.840 C 30.621 142.818,31.550 143.160,32.109 143.600 C 32.669 144.040,33.278 144.397,33.463 144.394 C 33.648 144.391,33.530 144.213,33.200 144.000 C 32.715 143.686,32.772 143.611,33.500 143.606 C 33.995 143.603,34.400 143.408,34.400 143.173 C 34.400 142.928,34.059 142.854,33.600 143.000 C 33.160 143.140,32.800 143.085,32.800 142.880 C 32.800 142.334,39.333 142.400,39.708 142.950 C 39.877 143.197,39.967 142.425,39.908 141.233 C 39.787 138.806,38.854 138.345,36.194 139.401 C 35.316 139.750,34.802 139.762,34.299 139.445 C 33.751 139.100,33.491 139.177,33.041 139.821 C 32.517 140.569,31.999 140.638,26.370 140.709 C 20.792 140.779,20.333 140.732,21.033 140.163 C 21.455 139.821,21.575 139.655,21.300 139.794 C 21.025 139.933,20.800 139.857,20.800 139.624 C 20.800 138.874,19.135 139.163,18.929 139.949 C 18.747 140.647,18.670 140.634,17.785 139.749 C 16.844 138.808,15.980 138.554,15.467 139.067 M34.604 140.007 C 34.742 140.230,35.023 140.309,35.228 140.183 C 35.432 140.056,35.600 140.143,35.600 140.376 C 35.600 141.003,34.573 140.890,34.000 140.200 C 33.686 139.822,33.659 139.600,33.927 139.600 C 34.161 139.600,34.466 139.783,34.604 140.007 M26.000 142.800 C 26.000 143.020,25.539 143.200,24.976 143.200 C 24.396 143.200,24.060 143.373,24.200 143.600 C 24.336 143.820,24.257 144.000,24.024 144.000 C 23.533 144.000,23.513 143.893,23.843 143.033 C 24.106 142.348,26.000 142.143,26.000 142.800 M35.913 143.694 C 36.588 144.019,36.948 144.012,37.293 143.667 C 37.649 143.311,37.432 143.206,36.380 143.227 C 35.084 143.252,35.056 143.281,35.913 143.694 M39.542 144.363 C 39.464 144.591,39.000 144.837,38.510 144.911 C 37.143 145.118,37.102 145.422,38.427 145.523 C 39.529 145.607,40.466 144.733,39.891 144.158 C 39.777 144.043,39.620 144.136,39.542 144.363 M15.400 145.200 C 15.536 145.420,16.042 145.597,16.524 145.594 C 17.236 145.589,17.288 145.515,16.800 145.200 C 16.012 144.691,15.085 144.691,15.400 145.200 M18.800 145.556 C 18.800 145.751,18.575 145.903,18.300 145.893 C 15.203 145.778,14.045 147.187,15.796 148.939 C 16.247 149.390,16.271 149.581,15.896 149.720 C 15.623 149.822,16.292 149.829,17.382 149.737 C 18.472 149.644,19.448 149.486,19.550 149.384 C 19.652 149.282,20.069 149.500,20.477 149.870 C 21.018 150.360,21.338 150.422,21.661 150.099 C 21.983 149.777,22.301 149.781,22.835 150.115 C 23.388 150.460,23.897 150.453,24.912 150.086 C 26.549 149.494,29.349 149.435,29.001 149.999 C 28.837 150.264,29.105 150.264,29.800 150.000 C 30.495 149.736,30.763 149.736,30.599 150.001 C 30.460 150.227,30.798 150.400,31.376 150.400 C 31.939 150.400,32.400 150.198,32.400 149.951 C 32.400 149.645,32.595 149.664,33.013 150.010 C 33.517 150.429,33.713 150.398,34.124 149.836 C 34.539 149.268,34.819 149.227,35.779 149.592 C 36.966 150.043,37.579 149.677,37.594 148.508 C 37.597 148.237,38.050 147.902,38.600 147.764 C 40.218 147.358,39.936 146.000,38.233 146.000 C 37.482 146.000,36.776 145.775,36.665 145.500 C 36.507 145.109,36.456 145.112,36.432 145.514 C 36.407 145.910,36.209 145.926,35.569 145.583 C 35.112 145.339,34.437 145.272,34.069 145.434 C 33.701 145.597,30.179 145.758,26.242 145.791 C 22.304 145.824,19.424 145.718,19.842 145.554 C 20.526 145.285,20.512 145.253,19.700 145.228 C 19.205 145.213,18.800 145.360,18.800 145.556 M41.723 155.983 L 41.800 165.766 44.666 166.663 C 46.242 167.157,48.897 167.684,50.566 167.835 L 53.600 168.110 53.600 162.287 L 53.600 156.464 52.300 156.204 C 46.548 155.053,43.721 152.711,42.156 147.800 C 41.717 146.422,41.657 147.560,41.723 155.983 M38.000 148.800 C 38.000 149.020,38.225 149.203,38.500 149.206 C 38.833 149.210,38.800 149.342,38.400 149.600 C 38.070 149.813,38.003 149.991,38.251 149.994 C 38.499 149.997,38.949 149.695,39.251 149.323 C 39.624 148.863,39.640 148.743,39.300 148.947 C 39.025 149.112,38.800 149.057,38.800 148.824 C 38.800 148.591,38.620 148.400,38.400 148.400 C 38.180 148.400,38.000 148.580,38.000 148.800 M66.616 150.350 C 65.918 152.549,61.998 155.266,58.413 156.035 L 56.400 156.466 56.400 162.258 L 56.400 168.049 58.300 167.798 C 59.345 167.661,61.775 167.081,63.700 166.511 L 67.200 165.474 67.200 157.537 C 67.200 149.832,67.114 148.779,66.616 150.350 M69.042 151.035 C 68.536 152.353,68.801 154.676,69.531 155.338 C 70.497 156.212,70.770 156.173,70.516 155.200 C 70.327 154.477,70.495 154.404,72.253 154.440 C 73.826 154.472,74.008 154.541,73.200 154.800 C 72.367 155.067,72.333 155.128,73.000 155.166 C 73.440 155.191,74.250 155.314,74.800 155.440 C 75.506 155.602,75.640 155.556,75.257 155.285 C 74.507 154.753,75.191 154.467,76.400 154.808 C 77.291 155.059,77.320 155.124,76.666 155.401 C 75.786 155.774,76.500 156.392,77.800 156.382 C 78.522 156.376,78.534 156.337,77.917 155.977 C 77.234 155.579,77.346 154.400,78.066 154.400 C 78.276 154.400,78.348 154.560,78.227 154.756 C 78.106 154.952,78.449 155.402,78.989 155.756 C 80.116 156.495,84.800 156.672,84.800 155.976 C 84.800 155.743,84.620 155.664,84.400 155.800 C 84.180 155.936,84.000 155.857,84.000 155.624 C 84.000 155.004,84.764 155.106,85.479 155.822 C 86.212 156.555,88.059 156.440,88.321 155.644 C 88.422 155.338,88.321 155.202,88.097 155.340 C 87.874 155.478,87.506 155.368,87.279 155.096 C 86.958 154.708,87.669 154.587,90.534 154.541 C 92.915 154.503,94.303 154.643,94.494 154.941 C 94.656 155.193,94.791 154.264,94.794 152.876 C 94.799 150.955,94.681 150.428,94.300 150.669 C 94.025 150.843,93.106 151.022,92.259 151.068 C 91.411 151.113,90.421 151.408,90.059 151.723 C 89.361 152.329,87.094 152.895,87.410 152.384 C 87.512 152.219,87.332 151.983,87.011 151.859 C 86.689 151.736,86.302 151.835,86.151 152.079 C 85.985 152.348,86.059 152.411,86.338 152.238 C 86.592 152.081,86.800 152.147,86.800 152.384 C 86.800 153.002,82.846 152.789,82.192 152.135 C 81.898 151.841,81.419 151.603,81.129 151.606 C 80.738 151.611,80.757 151.714,81.200 152.000 C 81.530 152.213,81.620 152.409,81.400 152.434 C 77.520 152.884,75.961 152.567,78.600 151.865 C 79.232 151.696,79.190 151.659,78.400 151.685 C 77.850 151.704,77.069 151.577,76.665 151.403 C 76.260 151.229,75.293 151.283,74.514 151.522 C 73.369 151.873,72.985 151.842,72.499 151.356 C 72.169 151.026,71.517 150.805,71.049 150.866 C 70.582 150.926,69.994 150.847,69.742 150.690 C 69.488 150.532,69.176 150.685,69.042 151.035 M15.278 152.700 C 15.355 153.901,15.575 154.566,15.875 154.508 C 16.153 154.455,16.287 154.750,16.196 155.219 C 16.111 155.660,16.212 155.916,16.421 155.787 C 16.629 155.658,16.800 155.310,16.800 155.014 C 16.800 154.672,17.092 154.551,17.600 154.684 C 18.040 154.799,18.400 155.112,18.400 155.380 C 18.400 155.648,18.660 155.867,18.978 155.867 C 19.415 155.867,19.461 155.687,19.164 155.133 C 18.613 154.104,19.633 154.158,20.856 155.223 C 21.771 156.020,21.772 156.032,20.909 155.613 C 20.218 155.279,20.062 155.296,20.213 155.691 C 20.457 156.327,32.431 156.430,32.894 155.800 C 33.076 155.552,33.190 155.590,33.194 155.900 C 33.197 156.175,33.458 156.400,33.774 156.400 C 34.167 156.400,34.290 156.086,34.166 155.400 C 34.066 154.850,34.168 154.400,34.392 154.400 C 34.616 154.400,34.800 154.580,34.800 154.800 C 34.800 155.020,35.475 155.203,36.300 155.206 C 37.416 155.211,37.646 155.312,37.200 155.600 C 36.715 155.914,36.772 155.989,37.500 155.994 C 38.744 156.002,38.628 155.350,37.300 154.865 C 36.256 154.483,36.286 154.462,37.900 154.432 L 39.600 154.400 39.600 152.833 C 39.600 151.071,39.024 150.650,37.747 151.478 C 36.842 152.064,35.976 152.044,35.530 151.425 C 35.367 151.199,34.892 151.243,34.330 151.536 L 33.400 152.021 34.323 151.842 C 34.910 151.728,35.190 151.833,35.092 152.131 C 34.884 152.765,32.800 152.989,32.800 152.378 C 32.800 152.011,32.668 152.011,32.225 152.379 C 31.842 152.697,30.373 152.813,27.824 152.728 C 25.720 152.658,23.999 152.735,23.999 152.900 C 24.000 153.309,23.521 153.267,22.800 152.794 C 22.303 152.467,22.293 152.340,22.743 152.050 C 23.126 151.803,22.967 151.700,22.200 151.700 C 21.440 151.700,21.277 151.803,21.657 152.044 C 22.261 152.427,22.239 152.440,20.735 152.576 C 19.892 152.653,19.700 152.520,19.812 151.936 C 19.911 151.425,19.716 151.200,19.177 151.200 C 18.750 151.200,18.400 151.380,18.400 151.600 C 18.400 152.191,17.628 152.086,16.943 151.400 C 15.738 150.195,15.147 150.656,15.278 152.700 M14.509 152.800 C 14.509 153.790,14.587 154.195,14.682 153.700 C 14.778 153.205,14.778 152.395,14.682 151.900 C 14.587 151.405,14.509 151.810,14.509 152.800 M69.693 153.672 C 69.770 154.482,69.690 155.056,69.516 154.948 C 69.342 154.841,69.221 153.908,69.246 152.876 C 69.295 150.907,69.459 151.198,69.693 153.672 M87.400 151.600 C 87.536 151.820,87.907 152.000,88.224 152.000 C 88.541 152.000,88.800 151.820,88.800 151.600 C 88.800 151.380,88.429 151.200,87.976 151.200 C 87.523 151.200,87.264 151.380,87.400 151.600 M76.200 152.000 C 75.099 152.473,74.708 152.473,75.000 152.000 C 75.136 151.780,75.642 151.613,76.124 151.628 C 76.969 151.655,76.971 151.669,76.200 152.000 M32.325 155.305 C 32.398 155.687,32.271 156.000,32.042 156.000 C 31.813 156.000,31.723 155.746,31.842 155.435 C 31.968 155.106,31.754 154.781,31.329 154.658 C 30.707 154.477,30.717 154.458,31.395 154.528 C 31.833 154.572,32.251 154.922,32.325 155.305 M68.846 158.700 C 68.896 161.141,69.072 160.902,69.289 158.100 C 69.362 157.165,69.281 156.400,69.111 156.400 C 68.940 156.400,68.821 157.435,68.846 158.700 M94.200 157.500 C 93.918 158.584,93.909 158.587,93.570 157.700 C 93.381 157.205,93.119 156.800,92.989 156.800 C 92.859 156.800,92.853 156.963,92.976 157.161 C 93.099 157.360,92.299 157.585,91.199 157.661 C 90.094 157.738,89.139 157.621,89.065 157.400 C 88.979 157.143,88.585 157.166,87.965 157.464 C 86.495 158.170,85.600 158.406,85.600 158.087 C 85.600 157.929,83.514 157.802,80.964 157.804 C 78.415 157.807,76.244 157.672,76.141 157.504 C 75.809 156.968,74.383 157.179,74.145 157.800 C 74.018 158.130,73.563 158.400,73.134 158.400 C 72.615 158.400,72.454 158.232,72.653 157.900 C 72.878 157.525,72.793 157.530,72.312 157.919 C 71.624 158.477,70.943 157.939,71.400 157.200 C 71.536 156.980,71.354 156.800,70.997 156.800 C 70.509 156.800,70.413 157.026,70.614 157.700 C 70.874 158.571,70.864 158.575,70.288 157.820 C 69.734 157.093,69.697 157.155,69.747 158.724 C 69.793 160.177,69.982 160.519,71.132 161.217 C 71.865 161.663,72.325 161.796,72.155 161.514 C 71.925 161.130,71.992 161.103,72.423 161.406 C 72.740 161.629,73.765 161.809,74.700 161.806 C 75.635 161.802,76.400 161.934,76.400 162.100 C 76.400 162.532,77.909 162.470,78.183 162.027 C 78.456 161.586,80.800 161.584,80.800 162.025 C 80.800 162.192,81.565 162.278,82.500 162.216 C 83.435 162.154,84.200 162.065,84.200 162.019 C 84.200 161.972,85.005 161.869,85.988 161.789 C 87.198 161.691,87.586 161.764,87.188 162.016 C 86.724 162.309,86.790 162.389,87.500 162.394 C 88.009 162.397,88.357 162.183,88.300 161.900 C 88.197 161.384,88.726 161.373,91.200 161.839 C 91.970 161.983,92.474 161.968,92.319 161.803 C 91.951 161.412,92.975 160.400,93.738 160.400 C 94.065 160.400,94.424 160.625,94.535 160.900 C 94.646 161.175,94.751 160.275,94.768 158.900 C 94.803 156.181,94.645 155.792,94.200 157.500 M14.855 157.158 C 14.489 157.390,14.458 157.553,14.760 157.653 C 15.008 157.736,15.254 158.634,15.306 159.650 C 15.377 161.052,15.536 161.444,15.966 161.280 C 16.326 161.142,16.426 161.234,16.242 161.532 C 16.083 161.789,16.143 162.000,16.376 162.000 C 16.609 162.000,16.803 161.775,16.806 161.500 C 16.810 161.190,16.924 161.152,17.106 161.400 C 17.530 161.977,18.400 162.079,18.400 161.551 C 18.400 161.224,18.544 161.221,18.930 161.542 C 19.304 161.852,19.584 161.856,19.884 161.556 C 20.185 161.255,20.400 161.276,20.617 161.627 C 20.815 161.947,20.759 162.022,20.462 161.838 C 20.208 161.681,20.000 161.743,20.000 161.976 C 20.000 162.209,20.270 162.400,20.600 162.400 C 20.930 162.400,21.200 162.250,21.200 162.067 C 21.200 161.883,21.470 161.733,21.800 161.733 C 22.130 161.733,22.400 161.905,22.400 162.116 C 22.400 162.326,22.662 162.281,22.982 162.015 C 23.627 161.479,32.244 161.627,33.963 162.203 C 34.627 162.426,34.841 162.390,34.654 162.087 C 34.467 161.785,34.954 161.694,36.209 161.797 C 37.864 161.932,38.014 161.873,37.791 161.173 C 37.524 160.329,38.196 160.089,38.555 160.900 C 38.677 161.175,38.737 161.040,38.688 160.600 C 38.638 160.140,38.812 159.842,39.100 159.900 C 39.661 160.012,39.724 158.639,39.215 157.400 C 38.919 156.680,38.858 156.668,38.607 157.281 C 38.331 157.958,36.003 158.153,36.001 157.500 C 36.000 157.335,35.730 157.200,35.400 157.200 C 35.070 157.200,34.800 157.335,34.800 157.500 C 34.800 157.884,20.139 157.872,19.755 157.488 C 19.294 157.027,18.389 157.154,17.778 157.764 C 17.086 158.457,15.468 158.122,15.765 157.347 C 16.004 156.725,15.653 156.652,14.855 157.158 M14.501 159.400 C 14.505 160.280,14.587 160.593,14.683 160.095 C 14.779 159.598,14.775 158.878,14.675 158.495 C 14.575 158.113,14.496 158.520,14.501 159.400 M93.043 161.433 C 92.893 161.823,92.982 162.006,93.275 161.908 C 93.873 161.709,94.202 160.800,93.676 160.800 C 93.461 160.800,93.176 161.085,93.043 161.433 M68.800 164.776 C 68.800 167.329,69.374 168.197,70.261 166.985 C 70.635 166.473,70.800 166.418,70.800 166.804 C 70.800 167.236,70.907 167.253,71.280 166.880 C 71.544 166.616,71.904 166.400,72.080 166.400 C 72.505 166.400,72.306 167.322,71.800 167.694 C 71.577 167.858,71.729 167.990,72.143 167.994 C 72.633 167.998,72.809 167.800,72.660 167.413 C 72.350 166.605,73.005 166.283,73.571 166.966 C 73.924 167.391,73.911 167.571,73.517 167.730 C 73.233 167.844,73.416 167.951,73.924 167.968 C 74.444 167.986,74.739 167.825,74.600 167.600 C 74.464 167.380,74.554 167.200,74.800 167.200 C 75.046 167.200,75.124 167.000,74.973 166.756 C 74.653 166.239,77.728 166.645,78.934 167.279 C 80.074 167.878,79.514 168.022,77.841 167.560 C 76.374 167.155,74.819 167.352,75.344 167.877 C 75.825 168.358,83.370 168.382,84.696 167.907 C 85.572 167.593,85.831 167.339,85.496 167.124 C 85.223 166.950,85.885 166.892,86.966 166.997 C 88.048 167.102,89.157 167.002,89.431 166.775 C 89.774 166.490,90.009 166.491,90.188 166.781 C 90.331 167.011,90.932 167.221,91.524 167.247 L 92.600 167.295 91.400 167.600 L 90.200 167.905 91.313 167.953 C 91.967 167.981,92.520 167.753,92.655 167.400 C 92.782 167.070,93.271 166.803,93.743 166.806 C 94.458 166.811,94.501 166.883,94.000 167.237 C 93.467 167.614,93.467 167.643,94.000 167.499 C 94.439 167.380,94.629 166.648,94.706 164.768 C 94.765 163.356,94.675 162.389,94.506 162.619 C 94.338 162.850,93.573 163.081,92.807 163.133 C 92.040 163.185,91.253 163.387,91.057 163.583 C 90.850 163.790,90.303 163.756,89.744 163.502 C 88.957 163.143,88.692 163.195,88.256 163.791 C 87.887 164.296,87.398 164.455,86.653 164.312 C 86.063 164.200,85.486 164.260,85.371 164.447 C 85.255 164.634,82.808 164.781,79.933 164.772 C 75.191 164.759,74.775 164.701,75.453 164.149 C 75.864 163.814,75.975 163.655,75.700 163.794 C 75.425 163.933,75.200 163.857,75.200 163.624 C 75.200 163.391,74.919 163.200,74.576 163.200 C 74.233 163.200,74.064 163.380,74.200 163.600 C 74.533 164.139,74.113 164.097,72.073 163.387 C 69.821 162.602,69.467 162.880,69.695 165.252 C 69.798 166.323,69.741 167.200,69.567 167.200 C 69.394 167.200,69.286 166.120,69.329 164.800 C 69.372 163.480,69.270 162.400,69.103 162.400 C 68.936 162.400,68.800 163.469,68.800 164.776 M14.611 163.300 C 14.288 164.286,14.200 167.600,14.497 167.600 C 14.664 167.600,14.827 166.565,14.860 165.300 C 14.893 164.035,14.987 163.540,15.070 164.200 C 15.417 166.985,15.430 167.000,17.484 166.998 C 18.538 166.997,19.637 166.844,19.927 166.658 C 20.216 166.472,20.561 166.428,20.693 166.560 C 20.825 166.692,20.678 166.803,20.367 166.806 C 19.898 166.811,19.904 166.887,20.400 167.244 C 20.906 167.608,20.891 167.640,20.300 167.450 C 19.849 167.305,19.600 167.434,19.600 167.813 C 19.600 168.715,20.309 168.511,21.037 167.400 C 21.832 166.186,22.400 166.112,22.400 167.224 C 22.400 167.744,22.230 167.942,21.938 167.762 C 21.652 167.585,21.585 167.652,21.762 167.938 C 21.953 168.247,23.699 168.400,27.047 168.400 C 30.941 168.400,31.981 168.289,31.747 167.900 C 31.572 167.609,31.761 167.650,32.200 168.000 C 32.709 168.405,32.851 168.429,32.637 168.073 C 32.414 167.702,32.536 167.584,33.051 167.673 C 33.453 167.743,33.786 167.590,33.791 167.333 C 33.796 167.077,33.964 166.717,34.164 166.533 C 34.380 166.336,34.394 166.431,34.199 166.768 C 33.951 167.194,34.039 167.271,34.550 167.075 C 34.971 166.913,35.317 167.039,35.458 167.407 C 35.583 167.733,35.841 168.000,36.030 168.000 C 36.220 168.000,36.271 167.730,36.145 167.400 C 35.875 166.698,38.573 166.509,39.000 167.200 C 39.136 167.420,39.462 167.586,39.724 167.568 C 39.986 167.551,40.020 167.461,39.800 167.369 C 39.577 167.276,39.461 166.225,39.537 165.001 C 39.678 162.738,39.347 162.310,38.283 163.374 C 37.840 163.817,37.599 163.840,37.231 163.474 C 36.861 163.107,36.819 163.181,37.044 163.800 C 37.330 164.584,37.319 164.585,36.485 163.854 C 35.658 163.128,33.931 163.798,34.686 164.552 C 34.822 164.689,34.554 164.800,34.090 164.800 C 33.627 164.800,33.124 164.601,32.974 164.357 C 32.793 164.065,32.615 164.053,32.449 164.321 C 32.311 164.544,31.479 164.829,30.599 164.955 C 29.397 165.126,29.248 165.096,30.000 164.834 C 30.684 164.595,29.951 164.519,27.683 164.592 C 23.681 164.722,23.696 164.353,27.708 163.984 L 30.600 163.717 27.549 163.659 C 25.327 163.616,24.368 163.756,24.021 164.175 C 23.712 164.547,22.954 164.710,21.872 164.637 C 18.553 164.413,18.558 164.414,19.153 164.038 C 19.965 163.523,18.220 163.037,17.336 163.532 C 16.863 163.797,16.486 163.743,16.099 163.356 C 15.409 162.666,14.826 162.644,14.611 163.300 M36.129 164.640 C 35.976 165.041,35.758 165.118,35.502 164.862 C 35.044 164.404,35.487 163.483,36.010 163.806 C 36.205 163.927,36.259 164.302,36.129 164.640 M86.400 167.578 C 86.400 168.237,88.401 168.564,88.929 167.992 C 89.301 167.590,89.247 167.536,88.671 167.740 C 88.270 167.881,87.595 167.811,87.171 167.584 C 86.653 167.307,86.400 167.305,86.400 167.578 " stroke="none" fill="#8cc63e" fill-rule="evenodd"></path><path id="path2" d="M74.130 0.410 C 69.249 1.398,64.458 5.144,62.199 9.737 C 60.295 13.609,60.027 16.175,60.012 30.672 L 60.000 42.744 38.500 42.904 C 20.750 43.036,16.651 43.170,15.000 43.672 C 8.311 45.704,3.189 50.636,0.950 57.200 C 0.228 59.318,0.200 61.954,0.200 127.600 L 0.200 195.800 1.135 198.506 C 3.562 205.535,9.422 210.639,16.583 211.963 C 19.835 212.564,87.714 212.570,91.027 211.970 C 99.043 210.516,105.898 203.569,107.177 195.600 C 107.453 193.879,107.595 172.611,107.597 132.672 L 107.600 72.344 109.263 70.372 L 110.925 68.400 119.620 68.400 C 134.323 68.400,140.016 65.061,142.603 54.920 C 143.727 50.515,143.313 14.564,142.104 11.609 C 140.069 6.633,136.537 3.087,131.648 1.109 L 129.400 0.200 102.600 0.136 C 87.860 0.101,75.049 0.224,74.130 0.410 M129.400 8.141 C 131.686 9.208,134.134 11.728,135.231 14.145 C 135.931 15.687,135.983 17.062,135.991 34.236 L 136.000 52.672 134.776 55.121 C 132.062 60.553,130.004 61.326,117.560 61.591 L 107.720 61.800 105.302 64.800 C 101.067 70.053,94.958 75.473,90.200 78.200 C 86.863 80.112,86.794 79.979,88.894 75.684 C 91.148 71.072,92.099 67.161,91.750 63.936 L 91.505 61.672 83.852 61.525 C 74.807 61.351,73.231 60.887,70.186 57.500 C 67.169 54.145,67.144 53.931,67.281 33.331 L 67.400 15.400 68.588 13.254 C 69.932 10.828,72.338 8.672,74.642 7.827 C 75.928 7.356,80.666 7.252,101.800 7.232 L 127.400 7.208 129.400 8.141 M70.400 28.800 L 70.400 30.800 73.600 30.800 L 76.800 30.800 76.800 37.400 L 76.800 44.000 79.200 44.000 L 81.600 44.000 81.600 37.400 L 81.600 30.800 85.000 30.800 L 88.400 30.800 88.400 28.800 L 88.400 26.800 79.400 26.800 L 70.400 26.800 70.400 28.800 M93.200 27.070 C 90.963 27.934,90.800 28.505,90.800 35.488 C 90.800 44.538,90.168 44.000,100.800 44.000 C 110.226 44.000,110.800 43.783,110.800 40.218 L 110.800 38.400 108.400 38.400 C 106.107 38.400,106.000 38.444,106.000 39.400 L 106.000 40.400 100.800 40.400 L 95.600 40.400 95.600 35.600 L 95.600 30.800 100.800 30.800 L 106.000 30.800 106.000 31.800 C 106.000 32.757,106.105 32.800,108.421 32.800 L 110.842 32.800 110.721 30.740 C 110.517 27.269,109.880 27.017,101.072 26.919 C 97.072 26.875,93.530 26.943,93.200 27.070 M115.297 27.398 C 113.388 28.227,113.129 29.369,113.273 36.333 C 113.442 44.529,112.759 44.000,123.190 44.000 C 130.579 44.000,131.161 43.946,132.146 43.171 L 133.200 42.342 133.200 35.600 C 133.200 26.536,133.489 26.792,123.274 26.816 C 118.427 26.827,116.243 26.986,115.297 27.398 M128.713 35.500 L 128.600 40.200 123.300 40.312 L 118.000 40.423 118.000 35.612 L 118.000 30.800 123.413 30.800 L 128.825 30.800 128.713 35.500 M62.951 60.300 C 64.043 62.399,67.239 65.176,70.314 66.696 L 73.358 68.200 79.479 68.343 C 86.531 68.507,86.235 68.262,84.449 72.447 C 82.946 75.968,79.592 81.044,76.070 85.125 C 74.491 86.954,73.200 88.484,73.200 88.525 C 73.200 88.566,75.585 88.487,78.500 88.349 C 84.416 88.070,88.122 87.087,92.700 84.583 L 95.200 83.215 95.200 127.408 L 95.200 171.600 54.000 171.600 L 12.800 171.600 12.800 115.400 L 12.800 59.200 37.590 59.200 L 62.379 59.200 62.951 60.300 M384.000 110.000 C 384.000 110.648,384.267 110.800,385.400 110.800 L 386.800 110.800 386.800 114.200 C 386.800 116.956,386.914 117.600,387.400 117.600 C 387.886 117.600,388.000 116.956,388.000 114.200 L 388.000 110.800 389.400 110.800 C 390.533 110.800,390.800 110.648,390.800 110.000 C 390.800 109.263,390.533 109.200,387.400 109.200 C 384.267 109.200,384.000 109.263,384.000 110.000 M391.600 113.400 C 391.600 117.304,391.655 117.600,392.384 117.600 C 393.090 117.600,393.179 117.271,393.284 114.300 L 393.400 111.000 394.218 114.200 C 395.380 118.745,396.279 118.832,397.464 114.515 L 398.319 111.400 398.359 114.500 C 398.396 117.320,398.472 117.600,399.200 117.600 C 399.950 117.600,400.000 117.333,400.000 113.375 L 400.000 109.149 398.734 109.275 C 397.547 109.392,397.423 109.559,396.752 111.949 C 395.811 115.294,395.807 115.294,395.005 112.019 C 394.318 109.217,394.306 109.200,392.957 109.200 L 391.600 109.200 391.600 113.400 M126.000 122.000 L 126.000 124.400 129.800 124.400 L 133.600 124.400 133.600 132.400 L 133.600 140.400 136.600 140.400 L 139.600 140.400 139.600 132.400 L 139.600 124.400 143.600 124.400 L 147.600 124.400 147.600 122.000 L 147.600 119.600 136.800 119.600 L 126.000 119.600 126.000 122.000 M152.359 120.516 L 151.000 121.431 150.892 129.839 L 150.785 138.246 151.824 139.223 C 152.855 140.193,152.933 140.201,162.097 140.321 C 174.018 140.478,174.800 140.182,174.800 135.511 L 174.800 133.200 172.000 133.200 L 169.200 133.200 169.200 134.400 L 169.200 135.600 162.800 135.600 L 156.400 135.600 156.400 130.000 L 156.400 124.400 162.800 124.400 L 169.200 124.400 169.200 125.600 L 169.200 126.800 172.000 126.800 L 174.800 126.800 174.800 124.475 C 174.800 120.005,173.772 119.600,162.433 119.600 C 154.014 119.600,153.672 119.631,152.359 120.516 M180.408 120.046 C 177.996 121.009,178.000 120.991,178.000 129.992 L 178.000 138.261 179.031 139.230 C 180.048 140.186,180.187 140.202,188.731 140.324 C 202.712 140.525,202.000 141.074,202.000 130.094 C 202.000 119.145,202.512 119.588,189.874 119.625 C 185.213 119.639,180.954 119.829,180.408 120.046 M216.400 122.000 L 216.400 124.400 220.200 124.400 L 224.000 124.400 224.000 132.400 L 224.000 140.400 227.000 140.400 L 230.000 140.400 230.000 132.400 L 230.000 124.400 234.000 124.400 L 238.000 124.400 238.000 122.000 L 238.000 119.600 227.200 119.600 L 216.400 119.600 216.400 122.000 M243.400 119.968 C 241.195 120.899,241.009 121.573,240.870 129.141 C 240.657 140.727,240.304 140.400,253.000 140.400 C 265.642 140.400,265.200 140.785,265.200 129.787 L 265.200 122.413 264.034 121.106 L 262.867 119.800 253.534 119.715 C 248.400 119.668,243.840 119.782,243.400 119.968 M270.800 119.872 C 268.483 120.760,268.400 121.110,268.400 130.041 C 268.400 141.073,267.629 140.400,280.266 140.400 C 292.832 140.400,292.400 140.778,292.400 129.787 L 292.400 122.413 291.234 121.106 L 290.067 119.800 280.734 119.721 C 275.600 119.678,271.130 119.746,270.800 119.872 M295.600 130.000 L 295.600 140.400 306.200 140.400 L 316.800 140.400 316.800 138.200 L 316.800 136.000 309.000 136.000 L 301.200 136.000 301.200 127.800 L 301.200 119.600 298.400 119.600 L 295.600 119.600 295.600 130.000 M320.000 130.000 L 320.000 140.400 322.800 140.400 L 325.600 140.400 325.600 136.400 L 325.600 132.400 329.100 132.388 L 332.600 132.376 336.400 136.411 L 340.200 140.446 343.916 140.323 L 347.632 140.200 343.016 135.335 C 340.477 132.659,338.400 130.270,338.400 130.025 C 338.400 129.780,340.488 127.380,343.041 124.690 L 347.682 119.800 343.941 119.681 L 340.200 119.561 336.400 123.595 L 332.600 127.629 329.100 127.615 L 325.600 127.600 325.600 123.600 L 325.600 119.600 322.800 119.600 L 320.000 119.600 320.000 130.000 M350.000 130.000 L 350.000 140.400 353.000 140.400 L 356.000 140.400 356.000 130.000 L 356.000 119.600 353.000 119.600 L 350.000 119.600 350.000 130.000 M358.800 122.000 L 358.800 124.400 362.600 124.400 L 366.400 124.400 366.400 132.400 L 366.400 140.400 369.400 140.400 L 372.400 140.400 372.400 132.400 L 372.400 124.400 376.400 124.400 L 380.400 124.400 380.400 122.000 L 380.400 119.600 369.600 119.600 L 358.800 119.600 358.800 122.000 M196.400 130.000 L 196.400 135.600 190.000 135.600 L 183.600 135.600 183.600 130.000 L 183.600 124.400 190.000 124.400 L 196.400 124.400 196.400 130.000 M259.600 130.000 L 259.600 135.600 253.200 135.600 L 246.800 135.600 246.800 130.000 L 246.800 124.400 253.200 124.400 L 259.600 124.400 259.600 130.000 M286.800 130.000 L 286.800 135.600 280.400 135.600 L 274.000 135.600 274.000 130.000 L 274.000 124.400 280.400 124.400 L 286.800 124.400 286.800 130.000 M57.301 180.571 C 64.326 183.078,66.527 191.991,61.480 197.493 C 54.203 205.425,41.082 198.496,43.589 188.046 C 45.024 182.066,51.538 178.514,57.301 180.571 " stroke="none" fill="#17331c" fill-rule="evenodd"></path><path id="path3" d="M133.361 35.600 C 133.361 39.010,133.422 40.405,133.497 38.700 C 133.572 36.995,133.572 34.205,133.497 32.500 C 133.422 30.795,133.361 32.190,133.361 35.600 M128.485 35.288 L 128.400 39.977 123.100 40.101 L 117.800 40.225 123.113 40.313 C 129.352 40.415,128.874 40.872,128.699 34.974 L 128.570 30.600 128.485 35.288 M98.100 40.297 C 99.585 40.374,102.015 40.374,103.500 40.297 C 104.985 40.220,103.770 40.157,100.800 40.157 C 97.830 40.157,96.615 40.220,98.100 40.297 M386.542 114.200 C 386.541 116.180,386.608 117.040,386.692 116.112 C 386.776 115.184,386.777 113.564,386.695 112.512 C 386.612 111.460,386.543 112.220,386.542 114.200 M388.142 114.200 C 388.141 116.180,388.208 117.040,388.292 116.112 C 388.376 115.184,388.377 113.564,388.295 112.512 C 388.212 111.460,388.143 112.220,388.142 114.200 M295.375 130.000 C 295.375 135.830,295.431 138.215,295.499 135.300 C 295.567 132.385,295.567 127.615,295.499 124.700 C 295.431 121.785,295.375 124.170,295.375 130.000 M268.167 130.200 C 268.167 134.380,268.226 136.036,268.298 133.879 C 268.371 131.723,268.370 128.303,268.298 126.279 C 268.225 124.256,268.166 126.020,268.167 130.200 M335.375 124.500 L 334.200 125.800 335.500 124.625 C 336.215 123.979,336.800 123.394,336.800 123.325 C 336.800 123.016,336.470 123.288,335.375 124.500 M259.359 130.000 C 259.359 133.190,259.421 134.495,259.497 132.900 C 259.573 131.305,259.573 128.695,259.497 127.100 C 259.421 125.505,259.359 126.810,259.359 130.000 M286.559 130.000 C 286.559 133.190,286.621 134.495,286.697 132.900 C 286.773 131.305,286.773 128.695,286.697 127.100 C 286.621 125.505,286.559 126.810,286.559 130.000 M334.000 134.125 C 334.000 134.194,334.585 134.779,335.300 135.425 L 336.600 136.600 335.425 135.300 C 334.330 134.088,334.000 133.816,334.000 134.125 M305.121 135.899 C 307.388 135.970,310.988 135.970,313.121 135.898 C 315.255 135.826,313.400 135.768,309.000 135.768 C 304.600 135.768,302.855 135.827,305.121 135.899 " stroke="none" fill="#4f6252" fill-rule="evenodd"></path><path id="path4" d="M16.800 131.542 C 15.810 131.695,14.775 131.962,14.500 132.134 C 13.962 132.471,13.772 137.236,14.300 137.153 C 15.033 137.037,15.600 137.232,15.600 137.600 C 15.600 137.820,15.341 138.000,15.024 138.000 C 14.707 138.000,14.333 138.184,14.194 138.410 C 14.055 138.635,14.116 138.770,14.330 138.710 C 14.794 138.579,14.818 138.703,14.740 140.900 L 14.680 142.600 14.400 140.800 L 14.120 139.000 14.060 141.124 C 14.027 142.292,14.137 143.163,14.304 143.059 C 14.472 142.956,14.956 143.125,15.381 143.435 C 16.128 143.982,16.123 144.000,15.234 144.000 C 14.567 144.000,14.380 144.171,14.553 144.621 C 14.696 144.995,14.625 145.139,14.373 144.983 C 14.098 144.813,13.997 145.452,14.078 146.863 C 14.161 148.310,14.361 148.968,14.700 148.900 C 14.975 148.845,15.200 148.980,15.200 149.200 C 15.200 149.420,15.483 149.600,15.829 149.600 C 16.400 149.600,16.400 149.543,15.829 148.971 C 14.047 147.189,15.181 145.777,18.300 145.893 C 18.575 145.903,18.800 145.751,18.800 145.556 C 18.800 145.360,19.205 145.213,19.700 145.228 C 20.501 145.253,20.518 145.288,19.852 145.550 C 19.441 145.712,22.530 145.836,26.717 145.827 C 30.904 145.817,34.245 145.672,34.141 145.505 C 33.878 145.079,34.878 145.135,35.589 145.585 C 35.978 145.831,36.283 145.795,36.483 145.479 C 36.716 145.113,36.789 145.118,36.794 145.500 C 36.798 145.804,37.350 146.000,38.200 146.000 C 39.932 146.000,40.239 147.353,38.600 147.764 C 38.050 147.902,37.597 148.237,37.594 148.508 C 37.579 149.677,36.966 150.043,35.779 149.592 C 34.819 149.227,34.539 149.268,34.124 149.836 C 33.713 150.398,33.517 150.429,33.013 150.010 C 32.595 149.664,32.400 149.645,32.400 149.951 C 32.400 150.198,31.939 150.400,31.376 150.400 C 30.798 150.400,30.460 150.227,30.599 150.001 C 30.763 149.736,30.495 149.736,29.800 150.000 C 29.051 150.285,28.832 150.272,29.027 149.957 C 29.307 149.503,26.887 149.633,24.043 150.225 C 23.136 150.414,22.772 150.369,22.945 150.089 C 23.237 149.616,22.471 149.654,21.675 150.150 C 21.355 150.350,20.873 150.228,20.442 149.838 C 20.053 149.486,19.653 149.280,19.553 149.381 C 19.452 149.481,18.304 149.666,17.002 149.793 C 15.699 149.919,14.493 150.243,14.323 150.512 C 13.714 151.470,13.965 154.485,14.700 155.043 C 15.625 155.745,16.267 155.736,16.267 155.022 C 16.267 154.704,16.072 154.479,15.833 154.522 C 15.585 154.567,15.348 153.787,15.278 152.700 C 15.147 150.656,15.738 150.195,16.943 151.400 C 17.628 152.086,18.400 152.191,18.400 151.600 C 18.400 151.380,18.750 151.200,19.177 151.200 C 19.716 151.200,19.911 151.425,19.812 151.936 C 19.700 152.520,19.892 152.653,20.735 152.576 C 22.239 152.440,22.261 152.427,21.657 152.044 C 21.277 151.803,21.440 151.700,22.200 151.700 C 22.967 151.700,23.126 151.803,22.743 152.050 C 22.293 152.340,22.303 152.467,22.800 152.794 C 23.521 153.267,24.000 153.309,23.999 152.900 C 23.999 152.735,25.720 152.658,27.824 152.728 C 30.373 152.813,31.842 152.697,32.225 152.379 C 32.668 152.011,32.800 152.011,32.800 152.378 C 32.800 152.989,34.884 152.765,35.092 152.131 C 35.190 151.833,34.910 151.728,34.323 151.842 L 33.400 152.021 34.330 151.536 C 34.892 151.243,35.367 151.199,35.530 151.425 C 35.976 152.044,36.842 152.064,37.747 151.478 C 39.024 150.650,39.600 151.071,39.600 152.833 L 39.600 154.400 37.900 154.416 L 36.200 154.431 37.546 155.016 C 39.173 155.722,39.331 155.735,38.958 155.132 C 38.764 154.817,38.887 154.748,39.334 154.919 C 39.899 155.136,40.000 154.879,40.000 153.220 C 40.000 150.707,39.710 150.000,38.681 150.000 C 37.865 150.000,37.864 149.988,38.619 149.435 C 39.044 149.125,39.528 148.956,39.696 149.059 C 39.863 149.163,40.000 148.378,40.000 147.317 L 40.000 145.386 38.573 145.453 C 37.788 145.490,37.263 145.403,37.406 145.260 C 37.667 144.999,37.887 144.943,39.000 144.850 C 39.775 144.785,39.787 144.000,39.013 144.000 C 38.656 144.000,38.515 143.765,38.654 143.402 C 38.781 143.074,39.045 142.904,39.242 143.026 C 39.439 143.148,39.600 143.076,39.600 142.866 C 39.600 142.652,38.101 142.491,36.200 142.500 C 34.330 142.509,32.800 142.682,32.800 142.885 C 32.800 143.088,33.160 143.140,33.600 143.000 C 34.059 142.854,34.400 142.928,34.400 143.173 C 34.400 143.408,33.995 143.603,33.500 143.606 C 32.772 143.611,32.715 143.686,33.200 144.000 C 33.530 144.213,33.648 144.391,33.463 144.394 C 33.278 144.397,32.669 144.040,32.109 143.600 C 31.550 143.160,30.621 142.818,30.046 142.840 L 29.000 142.880 30.000 143.184 C 30.949 143.474,30.928 143.500,29.600 143.692 C 28.612 143.835,28.759 143.868,30.100 143.806 C 31.145 143.757,32.000 143.858,32.000 144.029 C 32.000 144.200,30.020 144.331,27.600 144.320 C 25.112 144.309,23.200 144.136,23.200 143.922 C 23.200 143.713,22.930 143.273,22.600 142.943 C 22.071 142.414,22.000 142.413,22.000 142.938 C 22.000 143.265,22.225 143.612,22.500 143.709 C 22.775 143.805,22.505 143.888,21.900 143.892 C 21.253 143.897,20.800 143.683,20.800 143.374 C 20.800 143.084,20.616 142.733,20.390 142.594 C 20.165 142.455,20.006 142.489,20.037 142.670 C 20.189 143.542,19.945 143.954,19.400 143.745 C 19.070 143.618,18.800 143.264,18.800 142.957 C 18.800 142.562,18.269 142.400,16.977 142.400 L 15.154 142.400 15.277 140.703 C 15.427 138.640,16.322 138.285,17.757 139.721 C 18.664 140.627,18.748 140.644,18.929 139.949 C 19.135 139.163,20.800 138.874,20.800 139.624 C 20.800 139.857,21.025 139.933,21.300 139.794 C 21.575 139.655,21.455 139.821,21.033 140.163 C 20.333 140.732,20.792 140.779,26.370 140.709 C 31.999 140.638,32.517 140.569,33.041 139.821 C 33.491 139.177,33.751 139.100,34.299 139.445 C 34.803 139.763,35.315 139.749,36.194 139.395 C 36.858 139.128,37.985 138.957,38.700 139.015 C 39.598 139.088,40.000 138.947,40.000 138.560 C 40.000 138.252,39.730 138.000,39.400 138.000 C 39.070 138.000,38.800 137.736,38.800 137.413 C 38.800 137.055,39.035 136.915,39.400 137.055 C 39.895 137.245,40.000 136.833,40.000 134.689 C 40.000 132.350,39.911 132.064,39.100 131.802 C 37.890 131.410,19.070 131.191,16.800 131.542 M17.200 133.362 C 17.200 133.773,17.763 133.923,19.300 133.922 C 20.520 133.921,21.093 133.804,20.666 133.643 C 20.233 133.479,20.846 133.345,22.166 133.314 C 23.395 133.285,24.400 133.383,24.400 133.531 C 24.400 133.986,32.134 133.987,32.683 133.531 C 32.962 133.300,33.507 133.248,33.895 133.416 C 35.270 134.011,38.899 134.087,39.253 133.528 C 39.474 133.179,39.590 133.426,39.594 134.257 C 39.600 135.490,38.762 136.271,37.964 135.778 C 37.764 135.654,37.600 135.743,37.600 135.976 C 37.600 136.209,37.820 136.400,38.089 136.400 C 39.497 136.400,36.327 137.809,34.800 137.862 C 33.810 137.897,30.930 138.045,28.400 138.192 C 25.195 138.378,23.981 138.334,24.396 138.046 C 24.853 137.730,24.713 137.666,23.796 137.770 C 23.138 137.844,22.375 137.724,22.100 137.504 C 21.763 137.233,21.432 137.241,21.087 137.528 C 20.774 137.787,20.349 137.815,20.000 137.600 C 19.666 137.394,19.247 137.395,18.995 137.604 C 17.872 138.536,15.407 136.963,15.286 135.237 C 15.186 133.806,15.277 133.600,16.009 133.600 C 16.470 133.600,16.736 133.420,16.600 133.200 C 16.464 132.980,16.543 132.800,16.776 132.800 C 17.009 132.800,17.200 133.053,17.200 133.362 M34.000 140.200 C 34.573 140.890,35.600 141.003,35.600 140.376 C 35.600 140.143,35.432 140.056,35.228 140.183 C 35.023 140.309,34.742 140.230,34.604 140.007 C 34.466 139.783,34.161 139.600,33.927 139.600 C 33.659 139.600,33.686 139.822,34.000 140.200 M23.843 143.033 C 23.513 143.893,23.533 144.000,24.024 144.000 C 24.257 144.000,24.336 143.820,24.200 143.600 C 24.060 143.373,24.396 143.200,24.976 143.200 C 25.539 143.200,26.000 143.020,26.000 142.800 C 26.000 142.143,24.106 142.348,23.843 143.033 M37.293 143.667 C 36.948 144.012,36.588 144.019,35.913 143.694 C 35.056 143.281,35.084 143.252,36.380 143.227 C 37.432 143.206,37.649 143.311,37.293 143.667 M16.800 145.200 C 17.288 145.515,17.236 145.589,16.524 145.594 C 16.042 145.597,15.536 145.420,15.400 145.200 C 15.085 144.691,16.012 144.691,16.800 145.200 M71.674 149.587 C 70.504 149.770,69.436 150.030,69.300 150.166 C 68.845 150.622,68.976 155.066,69.445 155.066 C 69.690 155.066,69.836 154.782,69.769 154.433 C 69.326 152.118,69.312 150.422,69.738 150.688 C 69.992 150.846,70.582 150.926,71.049 150.866 C 71.517 150.805,72.169 151.026,72.499 151.356 C 72.985 151.842,73.369 151.873,74.514 151.522 C 75.293 151.283,76.260 151.229,76.665 151.403 C 77.069 151.577,77.850 151.704,78.400 151.685 C 79.190 151.659,79.232 151.696,78.600 151.865 C 75.961 152.567,77.520 152.884,81.400 152.434 C 81.620 152.409,81.530 152.213,81.200 152.000 C 80.757 151.714,80.738 151.611,81.129 151.606 C 81.419 151.603,81.898 151.841,82.192 152.135 C 82.846 152.789,86.800 153.002,86.800 152.384 C 86.800 152.147,86.592 152.081,86.338 152.238 C 86.059 152.411,85.985 152.348,86.151 152.079 C 86.302 151.835,86.689 151.736,87.011 151.859 C 87.332 151.983,87.512 152.219,87.410 152.384 C 87.094 152.895,89.361 152.329,90.059 151.723 C 90.421 151.408,91.411 151.113,92.259 151.068 C 94.429 150.951,95.232 150.389,93.968 149.872 C 92.750 149.373,74.536 149.141,71.674 149.587 M14.682 153.700 C 14.587 154.195,14.509 153.790,14.509 152.800 C 14.509 151.810,14.587 151.405,14.682 151.900 C 14.778 152.395,14.778 153.205,14.682 153.700 M88.800 151.600 C 88.800 151.820,88.541 152.000,88.224 152.000 C 87.907 152.000,87.536 151.820,87.400 151.600 C 87.264 151.380,87.523 151.200,87.976 151.200 C 88.429 151.200,88.800 151.380,88.800 151.600 M75.000 152.000 C 74.708 152.473,75.099 152.473,76.200 152.000 C 76.971 151.669,76.969 151.655,76.124 151.628 C 75.642 151.613,75.136 151.780,75.000 152.000 M16.672 155.246 C 16.546 155.730,16.118 156.000,15.480 156.000 C 14.933 156.000,14.376 156.285,14.243 156.633 C 13.896 157.536,13.942 161.194,14.300 161.230 C 14.465 161.246,15.050 161.337,15.600 161.431 C 16.266 161.545,16.421 161.486,16.063 161.255 C 15.768 161.064,15.433 160.208,15.319 159.354 C 15.205 158.499,14.936 157.690,14.722 157.556 C 14.508 157.421,14.633 157.196,14.999 157.056 C 15.930 156.699,16.003 156.727,15.765 157.347 C 15.468 158.122,17.086 158.457,17.778 157.764 C 18.357 157.186,19.796 156.960,19.462 157.500 C 19.360 157.665,22.769 157.800,27.038 157.800 C 31.307 157.800,34.800 157.665,34.800 157.500 C 34.800 157.335,35.070 157.200,35.400 157.200 C 35.730 157.200,36.000 157.335,36.001 157.500 C 36.003 158.153,38.331 157.958,38.607 157.281 C 38.858 156.668,38.919 156.680,39.215 157.400 C 39.724 158.639,39.661 160.012,39.100 159.900 C 38.805 159.841,38.648 160.128,38.717 160.600 C 38.811 161.244,38.756 161.285,38.438 160.812 C 38.221 160.488,37.911 160.356,37.748 160.518 C 37.237 161.029,38.282 161.691,39.160 161.413 C 39.861 161.190,40.000 160.826,40.000 159.206 C 40.000 156.412,39.751 156.001,38.057 155.994 C 36.969 155.989,36.752 155.890,37.200 155.600 C 37.646 155.312,37.416 155.211,36.300 155.206 C 35.475 155.203,34.800 155.020,34.800 154.800 C 34.800 154.580,34.616 154.400,34.392 154.400 C 34.168 154.400,34.066 154.850,34.166 155.400 C 34.290 156.086,34.167 156.400,33.774 156.400 C 33.458 156.400,33.197 156.175,33.194 155.900 C 33.190 155.590,33.076 155.552,32.894 155.800 C 32.431 156.430,20.457 156.327,20.213 155.691 C 20.062 155.296,20.218 155.279,20.909 155.613 C 21.772 156.032,21.771 156.020,20.856 155.223 C 19.633 154.158,18.613 154.104,19.164 155.133 C 19.461 155.687,19.415 155.867,18.978 155.867 C 18.660 155.867,18.400 155.648,18.400 155.380 C 18.400 154.527,16.891 154.410,16.672 155.246 M31.329 154.658 C 31.754 154.781,31.968 155.106,31.842 155.435 C 31.723 155.746,31.813 156.000,32.042 156.000 C 32.811 156.000,32.201 154.610,31.395 154.528 C 30.717 154.458,30.707 154.477,31.329 154.658 M70.516 155.200 C 70.666 155.773,70.528 156.000,70.031 156.000 C 69.464 156.000,69.320 156.418,69.245 158.276 C 69.194 159.529,69.063 160.699,68.953 160.876 C 68.843 161.054,69.113 161.200,69.553 161.200 C 69.993 161.200,70.464 161.380,70.600 161.600 C 70.736 161.820,70.507 162.000,70.091 162.000 C 69.207 162.000,68.899 166.743,69.748 167.294 C 70.576 167.832,72.267 167.634,72.267 167.000 C 72.267 166.297,71.766 166.208,71.374 166.843 C 71.183 167.151,70.996 167.121,70.756 166.743 C 70.476 166.300,70.410 166.311,70.400 166.800 C 70.372 168.163,69.612 166.175,69.606 164.724 C 69.598 162.841,69.954 162.649,72.073 163.387 C 74.113 164.097,74.533 164.139,74.200 163.600 C 74.064 163.380,74.233 163.200,74.576 163.200 C 74.919 163.200,75.200 163.391,75.200 163.624 C 75.200 163.857,75.425 163.933,75.700 163.794 C 75.975 163.655,75.864 163.814,75.453 164.149 C 74.775 164.701,75.191 164.759,79.933 164.772 C 82.808 164.781,85.255 164.634,85.371 164.447 C 85.486 164.260,86.063 164.200,86.653 164.312 C 87.398 164.455,87.887 164.296,88.256 163.791 C 88.692 163.195,88.957 163.143,89.744 163.502 C 90.347 163.776,90.842 163.798,91.080 163.560 C 91.289 163.351,92.113 163.156,92.911 163.126 C 94.557 163.064,95.397 162.000,93.800 162.000 C 93.082 162.000,92.888 161.836,93.064 161.377 C 93.196 161.034,93.550 160.849,93.852 160.964 C 94.153 161.080,94.400 161.001,94.400 160.787 C 94.400 160.212,93.224 160.319,92.590 160.952 C 92.287 161.256,92.165 161.639,92.319 161.803 C 92.474 161.968,91.970 161.983,91.200 161.839 C 88.726 161.373,88.197 161.384,88.300 161.900 C 88.357 162.183,88.009 162.397,87.500 162.394 C 86.790 162.389,86.724 162.309,87.188 162.016 C 87.586 161.764,87.198 161.691,85.988 161.789 C 85.005 161.869,84.200 161.972,84.200 162.019 C 84.200 162.065,83.435 162.154,82.500 162.216 C 81.565 162.278,80.800 162.192,80.800 162.025 C 80.800 161.584,78.456 161.586,78.183 162.027 C 77.909 162.470,76.400 162.532,76.400 162.100 C 76.400 161.934,75.635 161.802,74.700 161.806 C 73.765 161.809,72.740 161.629,72.423 161.406 C 71.992 161.103,71.925 161.130,72.155 161.514 C 72.325 161.796,71.865 161.663,71.132 161.217 C 69.982 160.519,69.793 160.177,69.747 158.724 C 69.697 157.155,69.734 157.093,70.288 157.820 C 70.864 158.575,70.874 158.571,70.614 157.700 C 70.413 157.026,70.509 156.800,70.997 156.800 C 71.354 156.800,71.536 156.980,71.400 157.200 C 70.943 157.939,71.624 158.477,72.312 157.919 C 72.793 157.530,72.878 157.525,72.653 157.900 C 72.454 158.232,72.615 158.400,73.134 158.400 C 73.563 158.400,74.018 158.130,74.145 157.800 C 74.383 157.179,75.809 156.968,76.141 157.504 C 76.244 157.672,78.415 157.807,80.964 157.804 C 83.514 157.802,85.600 157.929,85.600 158.087 C 85.600 158.406,86.495 158.170,87.965 157.464 C 88.585 157.166,88.979 157.143,89.065 157.400 C 89.139 157.621,90.094 157.738,91.199 157.661 C 92.299 157.585,93.099 157.360,92.976 157.161 C 92.853 156.963,92.859 156.800,92.989 156.800 C 93.119 156.800,93.371 157.193,93.549 157.672 C 93.853 158.495,93.896 158.473,94.315 157.272 C 94.713 156.131,94.680 156.000,93.992 156.000 C 93.476 156.000,93.300 155.804,93.454 155.402 C 93.581 155.074,93.845 154.904,94.042 155.026 C 94.239 155.148,94.400 155.072,94.400 154.858 C 94.400 154.628,92.855 154.495,90.634 154.534 C 87.690 154.586,86.958 154.708,87.280 155.096 C 87.506 155.368,87.874 155.478,88.097 155.340 C 88.321 155.202,88.422 155.338,88.321 155.644 C 88.059 156.440,86.212 156.555,85.479 155.822 C 84.764 155.106,84.000 155.004,84.000 155.624 C 84.000 155.857,84.180 155.936,84.400 155.800 C 84.620 155.664,84.800 155.743,84.800 155.976 C 84.800 156.672,80.116 156.495,78.989 155.756 C 78.449 155.402,78.106 154.952,78.227 154.756 C 78.348 154.560,78.276 154.400,78.066 154.400 C 77.346 154.400,77.234 155.579,77.917 155.977 C 78.534 156.337,78.522 156.376,77.800 156.382 C 76.500 156.392,75.786 155.774,76.666 155.401 C 77.320 155.124,77.291 155.059,76.400 154.808 C 75.191 154.467,74.507 154.753,75.257 155.285 C 75.640 155.556,75.506 155.602,74.800 155.440 C 74.250 155.314,73.440 155.191,73.000 155.166 C 72.333 155.128,72.367 155.067,73.200 154.800 C 74.008 154.541,73.826 154.472,72.253 154.440 C 70.495 154.404,70.327 154.477,70.516 155.200 M14.683 160.095 C 14.587 160.593,14.505 160.280,14.501 159.400 C 14.496 158.520,14.575 158.113,14.675 158.495 C 14.775 158.878,14.779 159.598,14.683 160.095 M16.806 161.500 C 16.803 161.775,16.386 162.000,15.880 162.000 C 14.430 162.000,13.994 162.764,14.065 165.180 L 14.130 167.400 14.365 165.231 C 14.612 162.950,15.126 162.383,16.081 163.338 C 16.483 163.740,16.860 163.798,17.336 163.532 C 18.220 163.037,19.965 163.523,19.153 164.038 C 18.558 164.414,18.553 164.413,21.872 164.637 C 22.954 164.710,23.712 164.547,24.021 164.175 C 24.368 163.756,25.327 163.616,27.549 163.659 L 30.600 163.717 27.708 163.984 C 23.696 164.353,23.681 164.722,27.683 164.592 C 29.951 164.519,30.684 164.595,30.000 164.834 C 29.248 165.096,29.397 165.126,30.599 164.955 C 31.479 164.829,32.311 164.544,32.449 164.321 C 32.615 164.053,32.793 164.065,32.974 164.357 C 33.124 164.601,33.627 164.800,34.090 164.800 C 34.554 164.800,34.822 164.689,34.686 164.552 C 33.931 163.798,35.658 163.128,36.485 163.854 C 37.319 164.585,37.330 164.584,37.044 163.800 C 36.819 163.181,36.861 163.107,37.231 163.474 C 37.599 163.840,37.840 163.817,38.283 163.374 C 39.314 162.343,39.645 162.749,39.521 164.894 L 39.400 166.988 37.655 166.860 C 36.335 166.763,35.957 166.862,36.099 167.266 C 36.283 167.785,37.252 167.826,39.100 167.395 C 40.026 167.179,40.518 162.768,39.674 162.246 C 38.945 161.795,34.385 161.652,34.655 162.089 C 34.841 162.390,34.625 162.426,33.963 162.203 C 32.244 161.627,23.627 161.479,22.982 162.015 C 22.662 162.281,22.400 162.326,22.400 162.116 C 22.400 161.905,22.130 161.733,21.800 161.733 C 21.470 161.733,21.200 161.883,21.200 162.067 C 21.200 162.250,20.930 162.400,20.600 162.400 C 20.270 162.400,20.000 162.209,20.000 161.976 C 20.000 161.743,20.208 161.681,20.462 161.838 C 20.755 162.019,20.815 161.947,20.626 161.642 C 20.420 161.309,20.177 161.287,19.835 161.571 C 19.494 161.854,19.195 161.835,18.870 161.510 C 18.510 161.150,18.400 161.152,18.400 161.520 C 18.400 162.072,17.542 161.993,17.106 161.400 C 16.924 161.152,16.810 161.190,16.806 161.500 M14.860 165.350 L 14.800 167.700 16.000 167.460 C 16.660 167.328,17.200 167.351,17.200 167.511 C 17.200 167.671,17.740 167.809,18.400 167.818 C 19.060 167.826,19.600 167.697,19.600 167.529 C 19.600 167.362,19.915 167.326,20.300 167.450 C 20.891 167.640,20.906 167.608,20.400 167.244 C 19.904 166.887,19.898 166.811,20.367 166.806 C 20.678 166.803,20.825 166.692,20.693 166.560 C 20.561 166.428,20.216 166.472,19.927 166.658 C 19.637 166.844,18.538 166.997,17.484 166.998 C 15.430 167.000,15.417 166.985,15.070 164.200 C 14.987 163.540,14.893 164.058,14.860 165.350 M35.382 164.028 C 35.232 164.271,35.286 164.646,35.502 164.862 C 35.758 165.118,35.976 165.041,36.129 164.640 C 36.409 163.910,35.776 163.392,35.382 164.028 M21.016 167.432 C 20.354 168.443,20.359 168.461,21.270 168.332 C 21.878 168.246,22.244 167.889,22.328 167.300 C 22.499 166.095,21.849 166.160,21.016 167.432 M33.950 166.600 C 33.923 166.710,33.877 167.025,33.850 167.300 C 33.821 167.581,33.311 167.780,32.687 167.754 C 31.363 167.700,31.610 168.107,33.015 168.295 C 33.557 168.368,34.000 168.258,34.000 168.051 C 34.000 167.844,34.384 167.775,34.854 167.898 C 35.471 168.059,35.653 167.966,35.512 167.561 C 35.405 167.252,35.003 167.057,34.618 167.127 C 34.204 167.202,34.027 167.080,34.183 166.827 C 34.329 166.592,34.347 166.400,34.224 166.400 C 34.101 166.400,33.977 166.490,33.950 166.600 M72.662 166.700 C 72.316 167.259,72.981 167.983,73.529 167.644 C 73.932 167.395,73.916 167.228,73.455 166.845 C 73.134 166.579,72.777 166.513,72.662 166.700 M74.973 166.756 C 75.124 167.000,75.027 167.200,74.757 167.200 C 74.098 167.200,74.650 167.718,75.512 167.908 C 75.890 167.992,77.177 168.121,78.371 168.196 L 80.543 168.331 79.371 167.606 C 77.968 166.737,74.553 166.077,74.973 166.756 M89.420 166.768 C 89.256 167.032,88.328 167.137,87.075 167.032 C 85.934 166.937,85.253 166.961,85.563 167.084 C 85.947 167.237,85.756 167.468,84.963 167.809 C 83.806 168.307,83.809 168.309,85.600 168.298 C 86.590 168.291,87.175 168.206,86.900 168.110 C 86.625 168.013,86.400 167.758,86.400 167.543 C 86.400 167.328,86.613 167.284,86.873 167.445 C 87.636 167.917,89.599 167.910,89.606 167.436 C 89.610 167.139,89.706 167.133,89.906 167.417 C 90.076 167.658,90.707 167.720,91.400 167.564 C 92.521 167.312,92.533 167.292,91.580 167.247 C 91.019 167.221,90.364 167.004,90.125 166.765 C 89.812 166.452,89.615 166.453,89.420 166.768 M92.800 167.200 C 92.800 167.701,93.224 167.701,94.000 167.200 C 94.485 166.886,94.428 166.811,93.700 166.806 C 93.205 166.803,92.800 166.980,92.800 167.200 M78.000 167.600 L 79.000 167.920 78.000 167.932 C 77.450 167.938,76.640 167.789,76.200 167.600 L 75.400 167.256 76.200 167.268 C 76.640 167.274,77.450 167.424,78.000 167.600 " stroke="none" fill="#009343" fill-rule="evenodd"></path></g></svg>